<svg xmlns="http://www.w3.org/2000/svg" xmlns:xlink="http://www.w3.org/1999/xlink" viewBox="0 0 66 60" fill="#fff" fill-rule="evenodd" stroke="#000" stroke-linecap="round" stroke-linejoin="round"><use xlink:href="#A" x="1" y="1"/><symbol id="A" overflow="visible"><path d="M19.127 50.839c-2.44-1.92-5.04-3.756-6.816-6.344-3.74-4.566-6.6-9.85-8.588-15.406-1.19-3.612-1.6-7.486-3.132-10.96-1.604-2.52.276-5.28 3.04-6.08 1.23-.236 3.392-1.4.8-.568-2.34 1.716-2.566-1.56-.166-1.768 1.64-.2 2.24-1.56 1.68-2.764-1.76-1.148 4.264-2.406 1.232-4.12C4-.571 11.573-1.227 9.705 2.641c-.444 2.972 5.292-.548 3.96 2.888 1.354 1.65 5.068.376 4.974 2.69 1.972.136 2.648 1.794 4.5 1.92 1.92.866 5.394 1.548 6.046 3.71-1.9 1.506-6.306-3.11-6.52 1.06.576 6.16.428 12.504 2.68 18.37 1.066 3.55 3.65 6.346 6 9.112 2.234 2.708 5.26 4.616 8.34 6.2 2.704 1.276 5.6 2.12 8.566 2.652 1.194-.914 3.306-4.312 5.168-2.88.09 1.612-3.7 3.368-.2 3.19 2.07-.624 3.504 1.6 5.206-.408 1.57 1.86 6.52-1.186 5.406 2.612-1.51.974-3.712.386-5.224 1.726-2.494-1.246-4.48 1.114-7.24.816-3.066.55-6.184.77-9.292.774-5.1-.4-10.306-.572-15.156-2.348-2.734-.794-5.4-2.35-7.8-3.908zm4.306 1.866c2.668 1.152 5.28 2.368 8.2 2.736 4.64.644 9.43 1.64 14.086.732-2.108-.952-4.286.37-6.386-.68-2.52.54-5.2-.14-7.8-.474-2.91-1.296-6.052-2.188-8.776-3.872-3.406-1.244 1.76 1.596 2.68 1.826 2.128 1.208-2.34-.6-2.972-1.12-1.784-1-2.01-.792-.176.224l1.12.628zm-5.08-3.588c2.586.96-.012-1.8-1.194-1.66-.524-.91-2.006-1.486-.96-1.974-1.88.652-1.968-2.48-2.85-2.032-1.988-.628-.774-2.852-3.14-4.2-.216-1.44-2.352-2.686-3.032-4.856-.3-1.112-2.414-4.3-1.116-1.332 1.104 2.86 3.048 5.306 4.668 7.75 1.256 2.328 2.74 4.76 5.028 6.214.772.74 1.516 1.874 2.604 2.106zm-7.448-8.2c.09-.39.472.844 0 0zm10.546 9.326c.572-.256-.824-.324 0 0zm1.4.512c-.146-.706-.64.396 0 0zm1.76.732c.836-.796-1.29-.5 0 0zm3.012 1.68c.508-.75-1.626-.28 0 0zm-5.8-4.03c1.3-.84-1.68-.012 0 0zm1.32.66c-.04-.444-.47.2 0 0zm6.586 4.112c1.06.668 6.184 1.464 2.976.274-.54.112-5.95-1.532-2.976-.274zm-10.456-8.144c-.1-.444-1.644-.492 0 0zm3.066 1.788c.8-.56-1.656-.43 0 0zm2.6 1.6c1.146-.432-1.856-.434 0 0zm-6.92-4.75c1.24.952 5.012.12 1.9-.568-1.414-.754-4.6-1.27-2.428.454l.526.114zm8.64 5.274c.52-.88-2.172-.504 0 0zm-2.626-2.086c3.04.86-2.554-1.92-.75-.32l.4.2.35.136zm5.264 3.04c2.88.028-2.6-.4 0 0zm-12.386-7.894c-.112-.536-.71.044 0 0zm17.254 10.624c.076-.968-.94.72 0 0zm-12.34-7.6c-.174-.51-.9-.02 0 0zm-4.64-3.34c1.652-.1-2.26-.728 0 0zm-5.472-3.528c-.206-.792-1.796-1.424 0 0zm14.424 9.154c-.3-.346-.14.074 0 0zm8.976 5.51c-.028-.528-.488.2 0 0zm-9.77-6.33c.16-.68-1.41-.206 0 0zm-6.688-4.24c1.23-.13-1.97-.83 0 0zm11.312 7.03c1.916-.76-1.866-.37 0 0zm-5.884-3.994c2.206.284-2.626-1.5-.486-.16l.486.16zm7.67 4.716c2.06-1.23 1.4 2.886 3.496.348 2.086-1.524-1.8 1.884.768.272 1.86-1.244 4.606.59 6.34 1.186 1.248-.06 2.46 1.08 3.74.386 2.46-.664-4.816-.984-2.908-2.16-2.252.656-3.916-.8-5.026-2.224-2.528-.584-5.448-1.876-6.71-4.112-.514-.84.74.12-.444-1.254-1.52-1.354-2.28-2.892-3.304-4.54-1.2-.65-1.366-2.568-1.488-.064.01-1.6-1.474-2.646-1.84-2.204-.006-1.52 1.59-.76.472-1.884-.24-1.6-1.032-3.2-1.268-5.004-.37-.86-.052-2.7-1.26-.754-.44 2.054-.146-2.524.54-1.016.9-1.54-.324-1.36-.372-1.146.586-1.3.372-3.144-.154-2.44.312-1.4.494-5.07-.466-4.416.6-1.44 1.104-6.594-1.424-4.63-1.024.014-2.796.372-3.634.788 2.626 1.448-.264.524-1.336.292-.14 1.34-1.2.76-2.52.774 2.116.26-1.03 2.16-2.24 1.424-1.576.752 1.36 2.632.03 3.214.164.874-2.414-.316-2.212 1.708-1.528-.644-.21 2.4.556 1.37 2.6.704 1.83 2.308 1.896 3.834-.424.888-2.092-2.088-.372-1.95-1.36-2.206-1.5-.8-2.63.228-.26.074 2.88 1.46.908 2.14 1.734.268 1.784 1.786 2.136 2.744 1.04 1.086.826-1.2 2.074.106-.79-1.16-4.2-3.274-1.45-2.6-.014-1.168-.494-2.112.344-2.09.83-1.5-.868 3.7 1 1.792.516-.226.646-1.5 1.574.12 1.348 1.328.488 2.288-1.416 1.072.34 1.156 2.546 1.568 2.13 3.374.44 1.59 1.054 1.004 1.59.912.4 1.544.66.408.68-.326 1.924.412 1.472 1.55 2.076 2.344 1.326.6-1.9-4.056.4-1.4 2.394 2.16.9 3.066-1.25 2.72 1.36-.11 1.8 1.84 3.5 1.77 1.552.74 2.6 3.574-.072 2.392-.926-.836-4.212-1.868-1.528-.28 2.476 1.148 4.444 1.832 6.832 3.274 1.708 1.2 2.446 2.616 3.094 2.894-1.436.686-4.328-.548-2.2-.926-1.34-.244-2.848-.92-1.564.748 1.092.912 3.866.816 4.364.92-.4.928-1.146 1 .016 1.074-1.296.692.416.8.536 1.194zm-2.652-7.506c-.79-.826-.994-2.37-.14-1.026.44.176 1.4 2.526.14 1.026zm8.64 5.46c.492-.032.014.374 0 0zm-9.88-7.51c-.032-1.248.284.96 0 0zm-.86-1.154c-.994-1.92 1.25.54 0 0zm-10.404-7.2c.584-.156.288.996 0 0zm8.28 4.488c.36-1.346.4 1.128 0 0zm-5.85-4.068c-.412-.74.86.696 0 0zm5 1.608c-.94-2.106.668-1.15.21.344l-.21-.344zm-8.656-5.772c-.4-.692-1.114-2.72-.89-3.34.2 1.008 2.144 4.34.952 1.4-1.316-2.48 1.574.804 1.872 1.424.14.614-.812-.168-.168 1.276-1.176-1.644-.694.908-1.764-.74zm-2.674-1.844c.11-1.608.612 1.1 0 0zm1.204.416c.574-1.212.972 1.69 0 0zm-2.92-2.2c-.996-.99-1.716-1.9.048-.614.68.026-1.51-2.074.164-.668 1.76.32.868 2.886-.21 1.28zm1.52-.04c.6-.574.308.564 0 0zm.936.3c-.88-1.644 1.064.69 0 0zm-1.86-1.776c-2.896-2.6 3.64 1.346.472.48l-.472-.48zm8.296 4.8c-1.254-.75-.334-5.288.094-2.186 1.2-.394-.068 1.604.84 1.584-.14 1.26-.55 1.714-.934.6zm3.068 1.814c.12-1.368.26.936 0 0zm-.532-.528c.14-.584.012.688 0 0zm-10.224-6.934c-1.86-2.566 5.406 2.596 1.192.65-.44-.116-.97-.156-1.192-.65zm5.91 3.132c-.176-2.16.392.36 0 0zm4.486 2.88c.346-1.23.026.814 0 0zm-10.11-7.012c1.106-.236 4.6 1.94 1.39.6-.354-.392-1.112-.214-1.39-.6zm9.492 4.732c.12-2.21.66-1.32.004.32l-.004-.32zm-8.67-5.5c.452-.66-1.196-2.986.236-.834.6.492 1.794.824.76 1.032 1.63 1.44-.4.39-.994-.2zm8.2 4.812c.31-2.52.274 1.474 0 0zm-9.14-7.136c.344-.148.2.46 0 0zm2.14 1.274c.55-1.156 1.016 1.288 0 0zm6.034 3.356c-.004-.44.114.646 0 0zm-.35-.772c-.836-2.066.8 1.094 0 0zm-.514-1.356c-.14-.854.48 1.072 0 0zm.836-1.36c-.576-1.012.726-4.46.872-2.32-.606 1.668-.174 2.6.246.36.8-1.76-.168 3.474-1.12 1.96zm.86-5.132c.25-.308.056.37 0 0zm-1.44 28.3c-.34-.3.044.188 0 0zm2.96 1.496c1.646.424 1.64-.256.15-.46-.8-.744-3.324-1.534-1.064-.092.148.4.6.37.914.55zm-5.84-3.88c.906.68 3.414 1.916 1.292.26.716-.832-1.37-1.276-.68-1.832-1.76-1.08-1.39-1-.156-.946-2.116-.946.306-.874.192-1.36-.816-.16-4.052-1.44-2.148.104-1.936-.986-.46.368-1.046.226-2-.54 1.76 1.508-.314 1 1.134.9 3.056 2.306.48.952-.34.488 1.844 1.23 2.4 1.6zm3.094 1.8c3.76 1.212-1.846-1.48 0 0zm15.84 9.596c.048-.748-.514.64 0 0zm1.628.686c.868-.84.036 1.34 1.44-.206.014-1.106-.04-1.76-1.612-.416-.434.24-.626 1.26.174.6zM11.757 36.773c-.266-1.048-1.868-1.044 0 0zm1.74 1.14c-.646-1.07-2.304-.97 0 0zm9.892 5.966c.966.86 4.436.63 1.172.106-.48-.714-3.066-.54-1.172-.106zm13.596 8.4c1.486-1.248-1.44.556 0 0zm3.092 2.124c.01-.4-.64.174 0 0zm.006-.56c1.646-1.74-1.594.1 0 0zM7.481 33.193c-1.4-2-.872-2.9-2.224-4.534-.256-1.25-2.32-4.086-1.068-1.08 1.148 1.76 1.488 4.48 3.292 5.6zm32.08 20.092c3.03-1.956-1.24-.852 0 0zm2.312.906c1.52-1.3-.96-.272 0 0zM11.241 34.563c.434-.646-1.12-.084 0 0zm30.15 19.01c1.468-.946-.34-.8-.266.086l.266-.086zm-19.924-12.56c-.05-.64-.776.054 0 0zm1.23.708c-.392-.792-.6.124 0 0zm21.05 12.49c1.88-1.36-1.14-.26-.394.26l.394-.26zm-.72-.348c1.534-1.284-1.6.568 0 0zm3.68 2.45c1.028-.688-1.25-.2 0 0zm-34.52-22.22c1.4.308 5.51 3.396 3.074.214-1.248-.37-.5-3.4-1.774-2.88.854 1.428.7 2.036-1.092 1.136-2.254-1.1-1.266.544-.826 1-.6.14.794.52.6.532zm-6.28-4.96c.246-1-2.274-5.6-1.19-2.304.39.694.35 2.01 1.19 2.304zm11.532 7.11c-.712-.594-.034-.084 0 0zm1.748.408c0-1.08-1.932-.44 0 0zm15.154 9.552c-.29-.74-1.14-.016 0 0zm.728.532c-.108-.414-.4.08 0 0zm6.006 3.784c.6-.426-.72-.056 0 0zM9.041 29.937c1.652-.64-1.77-.456 0 0zm23.96 15.096c-.02-1.07-1.054.266 0 0zm-24.614-16.6c1.06-.36-1-.236 0 0zm3.08 1.492c-.02-.352-.326.134 0 0zm37.576 23.04c1.364-.276 4.476.694 5-.36-1.66-.04-5.734-1.17-5.926.268l.36.06.586.036zM12.447 30.153c.024-1.084-.844-.04 0 0zm-8.1-5.6c-.368-2.064-1.4-.312 0 0zm1.93.486c.024-.664-1.768-.596 0 0zm1.104.54c-.32-.26-.248.326 0 0zm6.946 4.454c.328-.3-.774-.2 0 0zm-7.68-5.68c-.188-1.56-2.24-.234 0 0zm-3.96-2.57c-.056-.72-.386.272 0 0zm.59-.444c-.096-.854-.506.108 0 0zm3.254 1.94c1.376-.54-2.506-1.12-.28-.1l.28.1zm43.556 26.894c.88-.808-1.12-.25 0 0zm5.26 2.726c.354-1.04-.89.14 0 0zM6.861 21.563c.146-1.01-1.092.2 0 0zm-4.632-3.1c-.244-1.43-.228-3.93 2.168-3.086-3.174.632 2.2 3.948 1.52 1.328 1.336.066 2.612-.79 1.91.506 2.634-.286 4.454-2.57 7-2.248 2-.264 4.144-.46 6.28-1.26 1.754-.126 3.44-2.014 2.48-3.134-2.392-.2-4.896.096-7.54.624-2.93.608-5.59 1.766-8.546 2.26-2.88.388.6 1.066-.246 1.2-1.5.52 1.794.872-.194 1.424-1.228-.234-2.506-.656-2-1.95-2.76.36-5.186 1.504-3.004 4.312l.16.002zm6.656-3.37c.646-2.384 3.466 1.96 1.06.32-.286-.216-.76-.39-1.06-.32zm.126-1.156c.934-.694.496.39 0 0zm1.186.02c.086-1.096 2.716.6.434.394l-.434-.394zm1.6-.652c.594-.694.172.614 0 0zm.416-.28c.988-1.186 5.586-.76 2.2-.116-.9-.68-1.594.4-2.2.116zm6-.926c-.148-3.24 2.984 1.15 0 0zm1.704-.01c.6-1.632 2.4-.656.29-.328.046.174-.064.844-.29.328zM6.171 20.743c1.86-1.14-1.974-.988 0 0zm1.376.4c.652-.694-1.4-.28 0 0zm-4.032-2.91c1.06-.8-1.26-.31 0 0zm54.94 34.37c.03-.948-.812.426 0 0zm-5.6-3.81c.16-1.09-.72.094 0 0zm7.12 4.2c1.486.006 4.504-.46 1.27-.46-.508.08-2.96.06-1.27.46zM8.801 20.439c1.204-.08 1.88-1.326-.234-1.256-3.28-.34 2.892 1.124-.4.704-.444.294.628.632.654.55zm1.06.536c-.126-.772-.372.41 0 0zm1.26-3.352c.52-.648-.72-.174 0 0zm-4-6.688c2.148-.73 5.084-1.55 6.1.36-1.032-1.24-.416-2.464.56-.648 1.4 1.836 2.068-.836 1.172-1.452 1 1.268 2.2 1.868.684.08 1.63-1.96-3.26.256-4.372.234-.534.24-5.52 1.272-4.14 1.426zm1.26-2.41c1.224-.924 4.236.55 2.304-.92-.19-.166-4.23 1.114-2.304.92zm4.464.184c1.432.036-.6-1.926 1.088-1.036-.28-.916-1.988-1.086-2.824-1.454-.472.836.96 2.5 1.734 2.49zm-3.68-4.052c.496-.672-.87.34 0 0zm1.796.436c2.31-.306-.588-.994-.466-.024l.466.024zm-3.408-2.66C5.927.309 10.613 2.789 8.959.567 7.567-.539 6.233 1.815 7.553 2.433zm20.848 11.26c.746-1.32-3.08-1.8-.5-.468.236.08.184.56.5.468z" stroke="none" fill="#000" fill-rule="nonzero"/></symbol></svg>